<?xml version="1.0" encoding="iso-8859-1"?>
<!-- Generator: Adobe Illustrator 19.0.0, SVG Export Plug-In . SVG Version: 6.00 Build 0)  -->
<svg version="1.1" id="Capa_1" xmlns="http://www.w3.org/2000/svg" xmlns:xlink="http://www.w3.org/1999/xlink" x="0px" y="0px"
	 viewBox="0 0 512 512" style="enable-background:new 0 0 512 512;" xml:space="preserve">
<circle style="fill:#1B9E84;" cx="256" cy="238.811" r="238.811"/>
<path style="fill:#98A7B5;" d="M369.633,188.914l-228.079,1.423c-16.454-41.992-20.733-87.775-12.34-132.087l8.87-46.846
	c2.105-11.122,16.882-13.685,22.624-3.918l23.832,40.608l29.963,51.057l36.806,45.51l3.051,3.762l3.148-3.772l39.175-46.924
	l29.934-50.998l23.871-40.666c5.731-9.767,20.508-7.203,22.614,3.918l8.87,46.846C390.366,101.148,386.086,146.922,369.633,188.914z
	"/>
<g>
	<path style="fill:#BCBCBC;" d="M214.503,99.15l36.806,45.51l-74.87,0.01c21.191-31.854,9.855-88.545,8.1-96.577L214.503,99.15z"/>
	<path style="fill:#BCBCBC;" d="M334.718,144.641l-77.209,0.01l39.175-46.924l29.934-50.998l0.244,0.409
		C326.861,47.138,311.928,110.301,334.718,144.641z"/>
</g>
<line style="fill:none;stroke:#000000;stroke-width:18;stroke-linejoin:round;stroke-miterlimit:10;" x1="255.591" y1="317.365" x2="255.591" y2="299.965"/>
<path style="fill:#BCBCBC;" d="M350.236,368.1c-5.829,12.584-7.291,26.659-4.318,40.023c0.751,3.343,1.774,6.638,3.07,9.855
	l10.03,24.817l3.889,9.63c-32.166,16.122-68.466,25.197-106.899,25.197c-37.498,0-72.969-8.636-104.541-24.037l4.026-11.697
	l8.685-25.246c1.14-3.304,1.988-6.667,2.554-10.069c2.066-12.379,0.38-25.187-4.961-36.718l-23.559-50.833
	c-6.891-14.865-9.474-31.348-7.476-47.606l10.322-83.681l65.912-80.201c4.786-5.819,11.921-9.192,19.456-9.192h58.338
	c7.535,0,14.67,3.373,19.456,9.192l65.921,80.201l10.313,83.681c2.008,16.259-0.585,32.741-7.466,47.606L350.236,368.1z"/>
<g>
	<path style="fill:#B3B3B3;" d="M234.544,98.341c-5.624,0-10.956,3.373-14.533,9.192l-49.244,80.201l-7.7,83.681
		c-1.501,16.259,0.429,32.741,5.576,47.606l17.604,50.833c5.088,14.699,5.731,31.464,1.794,46.787l-12.126,47.216
		c-8.373-2.973-16.532-6.414-24.446-10.274l12.711-36.943c5.273-15.323,4.406-32.088-2.408-46.787l-23.559-50.833
		c-6.891-14.865-9.474-31.348-7.476-47.606l10.322-83.681l65.912-80.201c4.786-5.819,11.921-9.192,19.456-9.192
		C226.424,98.341,234.544,98.341,234.544,98.341z"/>
	<polygon style="fill:#B3B3B3;" points="226.032,512 130.08,511.669 226.003,511.912 	"/>
</g>
<g>
	<path style="fill:#808080;" d="M235.254,169.325l-0.23,5.059c-0.323,7.007-1.337,13.945-2.996,20.721
		c-0.499,2.015-1.056,4.013-1.67,5.994c-0.926,2.989-3.727,5-6.855,5h-66.743c-4.296,0-6.387-5.266-3.255-8.205
		c21.899-20.537,47.03-32.545,57.732-37.087c3.319-1.406,7.399-3.307,8.517-3.653C227.348,154.861,235.657,160.693,235.254,169.325z
		"/>
	<path style="fill:#808080;" d="M308.848,308.855c0,13.237-10.868,22.546-22.565,22.546c-4.191,0-8.49-1.189-12.428-3.821
		l-8.401-5.601c-4.191-2.795-9.652-2.795-13.843-0.002l-8.41,5.603c-14.952,9.972-34.983-0.751-34.983-18.725
		c0-17.126,1.872-34.155,5.566-50.784c3.684-16.619,9.192-32.849,16.434-48.376c0.012-0.024,0.022-0.049,0.034-0.073
		c2.066-4.445,6.468-7.335,11.37-7.335h33.824c4.902,0,9.304,2.89,11.37,7.335c0.012,0.024,0.022,0.049,0.034,0.073
		c7.242,15.528,12.74,31.757,16.434,48.376C306.967,274.7,308.848,291.729,308.848,308.855z"/>
	<path style="fill:#808080;" d="M360.297,206.099H293.56c-3.122,0-5.923-2.003-6.847-4.986c-2.682-8.658-4.255-17.633-4.669-26.729
		l-0.243-5.059c-0.404-8.656,7.964-14.498,15.581-12.147c1.095,0.334,4.621,2.04,7.122,3.077
		c9.795,4.049,36.179,16.192,59.038,37.631C366.68,200.828,364.598,206.099,360.297,206.099z"/>
</g>
<path style="fill:#445280;" d="M258.531,314.582L258.531,314.582c-17.568,0-31.809-14.241-31.809-31.809l0,0
	c0-4.216,3.418-7.634,7.634-7.634h48.35c4.216,0,7.634,3.418,7.634,7.634l0,0C290.34,300.341,276.099,314.582,258.531,314.582z"/>
<g>
	<path style="fill:#303C69;" d="M241.343,282.773c0-4.217,3.417-7.634,7.634-7.634h-14.621c-4.216,0-7.634,3.417-7.634,7.634
		c0,17.568,14.241,31.809,31.809,31.809l0,0c2.517,0,4.962-0.301,7.311-0.854C251.8,310.423,241.343,297.823,241.343,282.773z"/>
	<path style="fill:#303C69;" d="M321.491,191.107c-2.174,3.499-5.371,6.209-9.094,7.788c0,0-0.01,0-0.01,0.01
		c-3.538,1.501-7.554,1.988-11.619,1.16c-5.605-1.14-10.166-4.562-12.915-9.085c-1.335-2.203-2.252-4.669-2.651-7.262
		c1.823-2.934,4.367-5.322,7.34-6.94c3.938-2.154,8.636-2.983,13.383-2.018c2.866,0.585,5.449,1.755,7.661,3.363
		c0,0,0.01,0,0.01,0.01C317.826,181.213,320.682,185.902,321.491,191.107z"/>
	<path style="fill:#303C69;" d="M231.864,183.718c-0.4,2.593-1.316,5.049-2.651,7.252c-2.749,4.533-7.311,7.954-12.915,9.094
		c-4.055,0.829-8.081,0.341-11.619-1.16c-3.723-1.579-6.93-4.299-9.104-7.798c0.809-5.205,3.665-9.894,7.895-12.974
		c0-0.01,0.01-0.01,0.01-0.01c2.213-1.608,4.796-2.778,7.661-3.363c4.757-0.965,9.455-0.136,13.393,2.027
		C227.497,178.406,230.041,180.784,231.864,183.718z"/>
</g>
<g>
	<path style="fill:#445280;" d="M229.534,187.9c0,1.053-0.107,2.086-0.322,3.07c-2.749,4.533-7.311,7.954-12.915,9.094
		c-4.055,0.829-8.081,0.341-11.619-1.16c-2.992-2.72-4.874-6.648-4.874-11.005c0-3.743,1.384-7.155,3.665-9.767
		c0-0.01,0.01-0.01,0.01-0.01c2.213-1.608,4.796-2.778,7.661-3.363c4.757-0.965,9.455-0.136,13.393,2.027
		C227.604,179.508,229.534,183.475,229.534,187.9z"/>
	<path style="fill:#445280;" d="M317.26,187.9c0,4.357-1.872,8.276-4.864,10.995c0,0-0.01,0-0.01,0.01
		c-3.538,1.501-7.554,1.988-11.619,1.16c-5.605-1.14-10.166-4.562-12.915-9.085c-0.214-0.994-0.322-2.027-0.322-3.08
		c0-4.425,1.94-8.402,5.01-11.122c3.938-2.154,8.636-2.983,13.383-2.018c2.866,0.585,5.449,1.755,7.661,3.363c0,0,0.01,0,0.01,0.01
		C315.876,180.745,317.26,184.157,317.26,187.9z"/>
</g>
<g>
	<circle style="fill:#4D65A3;" cx="221.524" cy="184.488" r="4.143"/>
	<circle style="fill:#4D65A3;" cx="215.431" cy="179.615" r="2.437"/>
	<circle style="fill:#4D65A3;" cx="310.468" cy="184.488" r="4.143"/>
	<circle style="fill:#4D65A3;" cx="304.376" cy="179.615" r="2.437"/>
</g>
<path style="fill:#445280;" d="M359.018,442.794c-57.919,20.002-120.399,22.205-179.313,6.589
	c-8.149-2.154-16.22-4.659-24.212-7.496l8.685-25.246c1.14-3.304,1.988-6.667,2.554-10.069c7.437,2.681,14.962,5.03,22.555,7.038
	c51.466,13.607,105.993,11.785,156.63-5.488c0.751,3.343,1.774,6.638,3.07,9.855L359.018,442.794z"/>
<path style="fill:#FDD36E;" d="M295.426,459.257c1.521,2.066-0.146,4.961-2.7,4.679l-20.255-2.203
	c-1.277-0.136-2.495,0.565-3.022,1.745l-6.18,14.036c-2.417,0.068-4.835,0.107-7.262,0.107c-0.721,0-1.443,0-2.164-0.01
	l-6.238-14.134c-0.517-1.179-1.735-1.881-3.022-1.745l-20.255,2.203c-2.544,0.283-4.211-2.612-2.7-4.679l12.038-16.444
	c0.76-1.033,0.76-2.447,0-3.48l-12.038-16.444c-1.511-2.076,0.156-4.961,2.7-4.679l20.255,2.203
	c1.287,0.136,2.505-0.565,3.022-1.745l8.227-18.647c1.033-2.349,4.367-2.349,5.4,0l8.217,18.647
	c0.526,1.179,1.745,1.881,3.022,1.745l20.255-2.203c2.554-0.283,4.221,2.603,2.7,4.679l-12.028,16.444
	c-0.76,1.033-0.76,2.447,0,3.48L295.426,459.257z"/>
<path style="fill:#303C69;" d="M189.287,413.61l-9.582,35.773c-8.149-2.154-16.22-4.659-24.212-7.496l8.685-25.246
	c1.14-3.304,1.988-6.667,2.554-10.069C174.169,409.253,181.694,411.602,189.287,413.61z"/>
<circle style="fill:#4D65A3;" cx="275.017" cy="285.374" r="5.848"/>
<g>
</g>
<g>
</g>
<g>
</g>
<g>
</g>
<g>
</g>
<g>
</g>
<g>
</g>
<g>
</g>
<g>
</g>
<g>
</g>
<g>
</g>
<g>
</g>
<g>
</g>
<g>
</g>
<g>
</g>
</svg>
